<svg xmlns="http://www.w3.org/2000/svg" viewBox="0 0 100 100">
  <rect width="100" height="100" rx="25" fill="#000000"/>
  <path fill="#25F4EE" d="M66.3,38.3c-0.2,0-0.4,0-0.6,0c-6.8,0-12.7-4-15.1-9.9c-0.2-0.5-0.3-0.9-0.4-1.4V11H37.5v52.6c0,6.5-5.3,11.8-11.8,11.8s-11.8-5.3-11.8-11.8s5.3-11.8,11.8-11.8c1.6,0,3.1,0.3,4.4,0.9v13.5c-1.4-0.6-3-0.9-4.4-0.9c-2.9,0-5.3,2.4-5.3,5.3s2.4,5.3,5.3,5.3s5.3-2.4,5.3-5.3V25.5c4.7,4.5,11,7.2,17.8,7.2v12.7c-2.5-0.1-4.9-0.7-7.2-1.7v13.8C53,62,63,56,66.3,45.7V38.3z"/>
  <path fill="#FE2C55" d="M68.3,36.3c-0.2,0-0.4,0-0.6,0c-6.8,0-12.7-4-15.1-9.9c-0.2-0.5-0.3-0.9-0.4-1.4V9H39.5v52.6c0,6.5-5.3,11.8-11.8,11.8s-11.8-5.3-11.8-11.8s5.3-11.8,11.8-11.8c1.6,0,3.1,0.3,4.4,0.9v13.5c-1.4-0.6-3-0.9-4.4-0.9c-2.9,0-5.3,2.4-5.3,5.3s2.4,5.3,5.3,5.3s5.3-2.4,5.3-5.3V23.5c4.7,4.5,11,7.2,17.8,7.2v12.7c-2.5-0.1-4.9-0.7-7.2-1.7v13.8C55,60,65,54,68.3,43.7V36.3z"/>
  <path fill="#ffffff" d="M67.3,37.3c-0.2,0-0.4,0-0.6,0c-6.8,0-12.7-4-15.1-9.9c-0.2-0.5-0.3-0.9-0.4-1.4V10H38.5v52.6c0,6.5-5.3,11.8-11.8,11.8s-11.8-5.3-11.8-11.8s5.3-11.8,11.8-11.8c1.6,0,3.1,0.3,4.4,0.9v13.5c-1.4-0.6-3-0.9-4.4-0.9c-2.9,0-5.3,2.4-5.3,5.3s2.4,5.3,5.3,5.3s5.3-2.4,5.3-5.3V24.5c4.7,4.5,11,7.2,17.8,7.2v12.7c-2.5-0.1-4.9-0.7-7.2-1.7v13.8C54,61,64,55,67.3,44.7V37.3z"/>
</svg>
